<?xml version="1.0" encoding="UTF-8" standalone="no"?>
<svg
   xmlns:dc="http://purl.org/dc/elements/1.1/"
   xmlns:cc="http://creativecommons.org/ns#"
   xmlns:rdf="http://www.w3.org/1999/02/22-rdf-syntax-ns#"
   xmlns:svg="http://www.w3.org/2000/svg"
   xmlns="http://www.w3.org/2000/svg"
   xmlns:sodipodi="http://sodipodi.sourceforge.net/DTD/sodipodi-0.dtd"
   xmlns:inkscape="http://www.inkscape.org/namespaces/inkscape"
   version="1.1"
   id="svg307"
   width="2000"
   height="2000"
   viewBox="0 0 2000 2000"
   sodipodi:docname="logo_bdp_dpv_white.svg"
   inkscape:version="1.0.1 (c497b03c, 2020-09-10)">
  <metadata
     id="metadata313">
    <rdf:RDF>
      <cc:Work
         rdf:about="">
        <dc:format>image/svg+xml</dc:format>
        <dc:type
           rdf:resource="http://purl.org/dc/dcmitype/StillImage" />
        <dc:title></dc:title>
      </cc:Work>
    </rdf:RDF>
  </metadata>
  <defs
     id="defs311" />
  <sodipodi:namedview
     pagecolor="#ffffff"
     bordercolor="#666666"
     borderopacity="1"
     objecttolerance="10"
     gridtolerance="10"
     guidetolerance="10"
     inkscape:pageopacity="0"
     inkscape:pageshadow="2"
     inkscape:window-width="1792"
     inkscape:window-height="991"
     id="namedview309"
     showgrid="false"
     inkscape:zoom="0.20598952"
     inkscape:cx="-74.754511"
     inkscape:cy="894.764"
     inkscape:window-x="0"
     inkscape:window-y="23"
     inkscape:window-maximized="0"
     inkscape:current-layer="g315"
     inkscape:document-rotation="0" />
  <g
     inkscape:groupmode="layer"
     inkscape:label="Image"
     id="g315"
     style="display:inline">
    <path
       style="fill:#ffffff;stroke-width:1.15394"
       d="m 1540.3387,983.01534 c 0,-0.21274 1.0236,-1.0195 2.2747,-1.79281 2.0616,-1.27429 2.1075,-1.23805 0.4907,0.3868 -1.698,1.70648 -2.7654,2.24917 -2.7654,1.40601 z"
       id="path340"
       inkscape:export-xdpi="96"
       inkscape:export-ydpi="96" />
    <path
       style="fill:#ffffff;stroke-width:1.15394"
       d="m 1540.3387,983.01534 c 0,-0.21274 1.0236,-1.0195 2.2747,-1.79281 2.0616,-1.27429 2.1075,-1.23805 0.4907,0.3868 -1.698,1.70648 -2.7654,2.24917 -2.7654,1.40601 z"
       id="path338"
       inkscape:export-xdpi="96"
       inkscape:export-ydpi="96" />
    <path
       style="fill:#ffffff;stroke-width:1.15394"
       d="m 1540.3387,983.01534 c 0,-0.21274 1.0236,-1.0195 2.2747,-1.79281 2.0616,-1.27429 2.1075,-1.23805 0.4907,0.3868 -1.698,1.70648 -2.7654,2.24917 -2.7654,1.40601 z"
       id="path336"
       inkscape:export-xdpi="96"
       inkscape:export-ydpi="96" />
    <path
       style="fill:#ffffff;stroke-width:1.15394"
       d="m 1158.4393,1172.7854 c 0,-0.2127 1.0236,-1.0195 2.2746,-1.7928 2.0616,-1.2743 2.1076,-1.2381 0.4908,0.3868 -1.698,1.7064 -2.7654,2.2491 -2.7654,1.406 z"
       id="path391"
       inkscape:export-xdpi="96"
       inkscape:export-ydpi="96" />
    <path
       style="fill:#ffffff"
       id="path477"
       d="" />
    <path
       style="fill:#ffffff;stroke-width:1.15394"
       d="m 1540.3387,983.01534 c 0,-0.21274 1.0236,-1.0195 2.2747,-1.79281 2.0616,-1.27429 2.1075,-1.23805 0.4907,0.3868 -1.698,1.70648 -2.7654,2.24917 -2.7654,1.40601 z"
       id="path542"
       inkscape:export-xdpi="96"
       inkscape:export-ydpi="96" />
    <path
       style="fill:#ffffff;stroke-width:1.15394"
       d="m 1540.3387,983.01534 c 0,-0.21274 1.0236,-1.0195 2.2747,-1.79281 2.0616,-1.27429 2.1075,-1.23805 0.4907,0.3868 -1.698,1.70648 -2.7654,2.24917 -2.7654,1.40601 z"
       id="path544"
       inkscape:export-xdpi="96"
       inkscape:export-ydpi="96" />
    <path
       style="fill:#ffffff;stroke-width:1.15394"
       d="m 1540.3387,983.01534 c 0,-0.21274 1.0236,-1.0195 2.2747,-1.79281 2.0616,-1.27429 2.1075,-1.23805 0.4907,0.3868 -1.698,1.70648 -2.7654,2.24917 -2.7654,1.40601 z"
       id="path546"
       inkscape:export-xdpi="96"
       inkscape:export-ydpi="96" />
    <path
       style="fill:#ffffff;stroke-width:1.15394"
       d="m 1158.4393,1172.7854 c 0,-0.2127 1.0236,-1.0195 2.2746,-1.7928 2.0616,-1.2743 2.1076,-1.2381 0.4908,0.3868 -1.698,1.7064 -2.7654,2.2491 -2.7654,1.406 z"
       id="path548"
       inkscape:export-xdpi="96"
       inkscape:export-ydpi="96" />
  </g>
  <g
     inkscape:groupmode="layer"
     id="layer4"
     inkscape:label="back"
     style="display:inline">
    <path
       id="rect490"
       style="opacity:0.99;fill:#ffffff;stroke-width:0.229416;stroke-miterlimit:4;stroke-dasharray:none"
       d="M 364.57023,339.23591 C -51.993458,755.7996 9.3172116,1243.428 346.13619,1658.8821 555.8948,1917.6118 1031.986,1909.0584 1031.986,1909.0584 v -123.4629 c -0.1078,15.0856 -0.2272,24.3828 -0.3555,24.3828 -0.4407,0 -7.5812,-8.3664 -15.8672,-18.5918 -8.2859,-10.2255 -20.36279,-25.1543 -26.83785,-33.1757 -6.47507,-8.0214 -22.05212,-27.2553 -34.61719,-42.7403 -12.56506,-15.4851 -36.96837,-45.6131 -54.22852,-66.9531 l -31.38281,-38.8008 13.67578,-20.9707 c 24.02792,-36.8497 39.57221,-69.45 51.78907,-108.6035 7.10213,-22.7615 17.49414,-74.1406 17.49414,-86.4961 v -8.7051 h -9.35157 -9.35351 l -2.27735,14.1211 c -8.91815,55.2833 -34.69149,119.9316 -66.99023,168.0352 l -14.48047,21.5644 -4.01367,-5.2168 c -3.369,-4.3781 -55.58893,-67.5437 -64.21094,-77.6699 -2.44452,-2.871 -1.29354,-4.8873 10.74805,-18.8222 25.18439,-29.1441 49.98377,-69.1137 53.35352,-85.9903 1.12083,-5.6133 0.55528,-6.5036 -7.16602,-11.2949 -20.91379,-12.9777 -25.49994,-21.5844 -25.57227,-48 -0.0729,-26.5742 3.58605,-33.9496 23.90235,-48.1855 8.20204,-5.7473 16.10537,-11.8878 17.5625,-13.6446 4.36367,-5.2611 3.2521,-28.8281 -1.82031,-38.6094 -8.90436,-17.1705 -28.33927,-30.2458 -48.50977,-32.6347 -17.79318,-2.1073 -34.70956,7.9023 -43.45508,25.7129 l -5.49805,11.1992 -1.125,50.0039 c -1.24818,55.5057 -2.87411,64.4185 -15.28906,83.7656 -9.10293,14.1856 -17.23374,19.7051 -30.4375,20.6602 l -10.89648,0.7871 -15.36133,-16.1035 c -8.44828,-8.8575 -24.40561,-27.339 -35.46094,-41.0684 -11.05534,-13.7294 -30.60528,-37.9437 -43.44531,-53.8105 -12.84003,-15.8668 -29.64381,-36.6381 -37.3418,-46.1582 -7.69797,-9.5201 -20.60218,-25.4414 -28.67578,-35.3809 -8.07359,-9.9395 -16.80797,-20.7582 -19.41016,-24.041 -2.60219,-3.2827 -16.05757,-19.8157 -29.90039,-36.7403 -13.84283,-16.9244 -28.34264,-34.7161 -32.2207,-39.5371 l -7.05078,-8.7656 27.97851,-33.5469 c 15.38737,-18.4502 31.58148,-37.954 35.98829,-43.3437 4.40681,-5.3898 20.65452,-24.86304 36.10546,-43.27347 15.45093,-18.4104 44.79079,-53.37992 65.19922,-77.70898 20.40844,-24.32906 41.83827,-49.85877 47.62305,-56.73438 5.78479,-6.8756 15.73183,-18.77637 22.10352,-26.44531 6.37172,-7.66895 12.30323,-13.94336 13.18164,-13.94336 3.21612,0 20.436,8.81505 38.56054,19.74024 83.92147,50.58664 153.08302,156.51602 186.29883,285.33986 9.7807,37.9333 13.62537,71.0954 15.02149,129.5723 l 1.26367,52.8906 h 7.69336 7.6914 l -0.0879,-69.2383 c -0.0883,-69.2051 -0.0921,-69.2512 -6.21094,-103.3457 -12.5019,-69.6612 -28.46324,-118.5668 -56.14647,-172.02736 C 849.43818,868.3901 795.6389,809.52537 725.01334,766.3416 c -0.3632,-0.22208 8.123,-11.07007 18.85742,-24.10546 10.73444,-13.03541 24.83773,-30.19161 31.33984,-38.125 6.50213,-7.93338 17.5405,-21.34827 24.5293,-29.81055 6.98883,-8.46228 24.77252,-30.10806 39.51953,-48.10352 14.747,-17.99545 30.27472,-36.92153 34.50586,-42.05664 4.23114,-5.13509 10.28758,-12.60864 13.46094,-16.60937 3.17335,-4.00074 21.73084,-26.61931 41.23828,-50.26172 46.97329,-56.93002 58.86236,-71.37297 82.59179,-100.33984 10.9859,-13.41066 20.2905,-24.38282 20.6758,-24.38282 0.09,0 0.1748,12.19913 0.2539,32.65821 v -86.78516 l -42.98829,51.73633 c -57.48533,69.18662 -56.06948,67.48096 -113.28515,136.55078 -22.34417,26.97352 -45.28669,54.66932 -50.98242,61.54492 -5.69575,6.87561 -28.24197,34.1374 -50.10352,60.58203 -21.86153,26.44463 -49.42262,59.76482 -61.24805,74.04492 -59.12672,71.40005 -122.10115,147.48343 -136.89844,165.39844 -52.48457,63.54278 -93.17278,112.73485 -102.60351,124.04885 -46.95565,56.3321 -64.55078,78.3649 -64.55078,80.8242 0,2.1249 13.68846,19.4952 65.74804,83.4278 6.54388,8.0364 31.64352,38.9169 55.7754,68.625 24.13191,29.7082 46.99603,57.8359 50.81054,62.5058 15.35671,18.8003 99.75997,122.7956 112.91016,139.1192 l 14.06836,17.4609 -8.29883,7.3984 c -11.07945,9.8775 -45.64205,32.8393 -61.18555,40.6485 -17.63698,8.8609 -49.33178,19.9181 -66.52148,23.207 -21.2985,4.0751 -79.393,3.5166 -100.80078,-0.9688 -81.11024,-16.9941 -147.58891,-68.4862 -185.0918,-143.3671 -10.83964,-21.6431 -17.32145,-39.5833 -21.88867,-60.584 -4.93085,-22.6727 -4.96442,-83.736 -0.0605,-108.4199 9.41707,-47.4017 28.36753,-85.7996 58.64063,-118.8145 l 9.96679,-10.8711 -6.27148,-5.1797 c -15.51054,-12.815 -28.83163,-30.9623 -40.95117,-55.7793 -19.9985,-40.95069 -27.32828,-78.83438 -25.28907,-130.71289 2.03738,-51.83208 14.35127,-89.94787 43.10547,-133.42578 11.68884,-17.67417 41.5598,-49.04079 58.50586,-61.43555 47.80537,-34.96597 107.05917,-54.31577 166.06836,-54.23047 46.5437,0.0673 73.61459,5.05292 116.31641,21.42188 30.45067,11.67269 28.85378,12.02501 19.54883,-4.3125 -28.26506,-49.62737 -59.72762,-122.25505 -66.58203,-153.69531 -4.30081,-19.72725 -6.12553,-80.86948 -3.04297,-101.95118 7.945,-54.33626 37.80356,-112.41969 79.25976,-154.17968 21.52414,-21.68189 32.5248,-29.66723 62.21094,-45.16016 21.41648,-11.17706 45.59993,-19.80501 70.19922,-25.04297 22.44243,-4.77869 81.49343,-4.72714 107.70117,0.0937 48.58655,8.93746 87.58655,28.51095 116.83785,58.64063 l 0.9707,1 v -141.0745 c 0,0 -431.8953,-3.77818 -667.41572,231.74224 z m 334.23608,507.19554 c -1.47619,0 -5.98789,4.10056 -10.02539,9.11133 -4.03751,5.01077 -20.17636,24.70005 -35.86329,43.7539 -15.68691,19.05384 -33.42811,40.61006 -39.42578,47.9043 -5.99767,7.29421 -13.16707,15.94879 -15.93164,19.23242 -4.28214,5.08614 -44.90322,54.4049 -84.12109,102.1328 -6.08425,7.4045 -14.17555,17.3571 -17.98047,22.1172 l -6.91797,8.6562 12.78906,15.6622 c 7.03351,8.6148 20.09963,24.6258 29.03516,35.5801 8.93554,10.9542 35.66893,44.1496 59.4082,73.7675 60.16105,75.0592 67.43307,83.5176 77.13868,89.7286 9.86131,6.3107 11.99164,6.5937 18.34374,2.4316 7.26966,-4.7632 11.36981,-17.9046 10.01368,-32.0938 -1.55345,-16.2538 -5.74885,-27.5478 -24.83203,-66.873 -25.25516,-52.0441 -25.53907,-52.9228 -25.53907,-78.7774 v -22.1172 l 8.50977,-14.375 c 10.99322,-18.5683 24.29243,-31.164 42.2832,-40.0468 13.98603,-6.9055 15.04399,-7.1167 34.70508,-6.9571 23.41556,0.1902 32.33625,3.0391 54.58789,17.4336 32.10499,20.7686 58.28844,57.832 80.79883,114.3751 12.47133,31.3262 22.25795,73.9328 22.36719,97.373 l 0.0391,8.1738 h 9.50195 c 5.22649,0 10.09034,-0.9511 10.8086,-2.1133 2.7726,-4.4861 1.28789,-90.6637 -1.90235,-110.3964 -6.3564,-39.3167 -19.5184,-85.6255 -36.07422,-126.9337 C 835.12158,964.8518 786.93664,896.30917 737.61295,864.1209 723.55691,854.94804 704.8747,846.43145 698.80631,846.43145 Z m 333.17969,465.42585 -83.69532,0.012 c -49.4852,0.01 -86.9593,0.7945 -90.98242,1.9121 -16.34582,4.5409 -23.98689,23.4136 -15.2207,37.5976 7.68092,12.428 7.5148,12.4082 103.73632,12.4082 h 86.16212 z m -145.17969,73.0839 -8.70508,20.6739 c -4.78867,11.3712 -15.01041,34.9547 -22.71484,52.4082 -11.53622,26.1339 -14.03508,33.581 -14.16211,42.2031 -0.14443,9.8028 0.25728,10.7504 6.31054,14.8594 4.97951,3.38 7.30031,3.9396 10.10352,2.4394 2.00173,-1.0713 8.33961,-11.6511 14.08398,-23.5117 13.4141,-27.6967 29.20835,-76.4842 32.66406,-100.8984 l 1.15625,-8.1739 h -9.36718 z"
       sodipodi:nodetypes="ssccsssssccsscccccccssssssssscccscccsssssscccsssssssscccccssssssssscsscccssssssssssccssssssscccssssssssssssscccsscsssscccsssssssccssssccssssssccsscccccsssssccccc"
       inkscape:export-xdpi="96"
       inkscape:export-ydpi="96" />
    <path
       style="opacity:0.99;fill:#ffffff;stroke-width:0.958113;stroke-miterlimit:4;stroke-dasharray:none"
       d="m 1081.9443,1246.4334 -25.6725,-1.698 -1.8948,-180.2785 c -1.0422,-99.15312 -4.6029,-237.2673 -7.9127,-306.92034 -3.3097,-69.65306 -5.5377,-146.40774 -4.9511,-170.56596 0.8037,-33.09411 0.012,-44.27527 -3.212,-45.34858 -3.3453,-1.11374 -4.2614,-33.7872 -4.1994,-149.7636 l 0.079,-148.33906 11.0453,10.69621 c 6.0749,5.88292 17.9769,17.88438 26.4488,26.66993 32.69,33.90038 46.7452,47.15406 83.6145,78.84645 66.6627,57.30239 104.9831,116.3335 132.504,204.11697 29.0541,92.67423 19.7367,183.294 -32.9358,320.32954 -8.1893,21.30565 -23.3312,60.19216 -33.6486,86.41449 -47.6164,121.01955 -65.2844,183.28495 -72.5043,255.51875 l -2.3082,23.0935 -19.3901,-0.5368 c -10.6646,-0.2955 -30.9427,-1.3011 -45.0626,-2.235 z"
       id="path516"
       inkscape:export-xdpi="96"
       inkscape:export-ydpi="96" />
    <path
       style="opacity:0.99;fill:#ffffff;stroke-width:0.911655;stroke-miterlimit:4;stroke-dasharray:none"
       d="m 1536.6263,1248.3154 c 1.3511,-36.3596 -2.7807,-56.3695 -16.3634,-79.2462 -35.614,-59.9825 -115.642,-68.9036 -168.5687,-18.791 -20.8443,19.736 -30.5003,34.7094 -44.0502,68.3079 -5.894,14.6147 -13.2624,31.7901 -16.3742,38.1674 l -5.6577,11.5953 -17.115,-1.6936 c -9.4132,-0.9313 -22.5061,-2.6834 -29.0954,-3.8932 -6.5892,-1.2099 -23.9181,-3.7827 -38.5086,-5.7174 -30.5898,-4.0561 -28.4315,-0.01 -23.0654,-43.3 7.8795,-63.5752 35.3831,-142.8902 77.045,-222.18284 52.1726,-99.29715 129.6462,-166.24039 215.7269,-186.40488 28.5312,-6.68346 75.9115,-6.58491 102.5435,0.21327 103.4037,26.39522 170.2418,103.68256 183.7662,212.49555 13.6886,110.1347 -39.1323,210.9556 -128.9984,246.2231 -25.2918,9.9257 -50.4853,14.7902 -76.6287,14.7961 h -15.792 l 1.1361,-30.5731 z m 7.4214,-266.19607 c 0,-1.48381 -0.6793,-2.69783 -1.5095,-2.69783 -0.8302,0 -2.4615,1.21402 -3.625,2.69783 -1.1635,1.48382 -0.4843,2.69783 1.5095,2.69783 1.9937,0 3.625,-1.21401 3.625,-2.69783 z"
       id="path518"
       inkscape:export-xdpi="96"
       inkscape:export-ydpi="96" />
    <path
       style="opacity:0.99;fill:#ffffff;stroke-width:0.911655;stroke-miterlimit:4;stroke-dasharray:none"
       d="m 1307.3186,1621.7346 c -17.1672,-4.3903 -41.0641,-19.6662 -56.6991,-36.2448 -36.6725,-38.8852 -72.8316,-118.9033 -72.8316,-161.1719 0,-11.9019 -4.9111,-10.2015 54.0014,-18.6984 21.2289,-3.0617 39.9796,-4.8939 41.6683,-4.0713 1.6886,0.8225 4.1368,5.4272 5.4404,10.2325 1.3036,4.8055 3.5547,9.9512 5.0026,11.4349 1.4478,1.4838 3.7763,6.9071 5.1744,12.0518 1.3981,5.1446 3.7068,11.2147 5.1304,13.4891 1.4236,2.2745 4.6437,7.7775 7.1558,12.2289 8.9354,15.8334 25.4772,31.6577 40.2035,38.4595 19.6957,9.0973 55.1124,11.1748 85.5905,5.0208 11.881,-2.3989 22.2475,-4.3617 23.0368,-4.3617 3.1004,0 1.17,14.8709 -3.9768,30.6357 -12.539,38.4065 -42.2601,71.5075 -76.6063,85.3176 -16.358,6.5773 -47.6268,9.4272 -62.2903,5.6773 z"
       id="path520"
       inkscape:export-xdpi="96"
       inkscape:export-ydpi="96" />
    <path
       style="opacity:0.99;fill:#ffffff;stroke-width:0.911655;stroke-miterlimit:4;stroke-dasharray:none"
       d="m 1034.0224,1732.7746 c 0,-45.6369 1.4416,-86.9381 3.2036,-91.7801 5.5844,-15.3468 10.2464,-77.8346 11.2392,-150.6473 l 0.9607,-70.4581 40.7791,-1.3413 c 22.4285,-0.7376 43.5336,-0.7736 46.9002,-0.08 6.4224,1.3237 8.5963,7.5272 18.2081,51.9596 9.316,43.0654 20.3072,70.631 44.6415,111.9602 21.6621,36.7904 23.3477,40.9651 21.5321,53.327 -4.7297,32.2044 -70.3042,105.0659 -135.0667,150.076 -23.5343,16.3564 -46.4663,29.9599 -50.5047,29.9599 -1.0412,0 -1.8931,-37.3393 -1.8931,-82.9763 z"
       id="path522"
       inkscape:export-xdpi="96"
       inkscape:export-ydpi="96" />
    <path
       style="opacity:0.99;fill:#ffffff;stroke-width:0.911655;stroke-miterlimit:4;stroke-dasharray:none"
       d="m 1183.7782,1382.3103 c 2.3533,-0.7485 6.2041,-0.7485 8.5574,0 2.3533,0.7484 0.4279,1.3607 -4.2787,1.3607 -4.7066,0 -6.6321,-0.6123 -4.2787,-1.3607 z"
       id="path524"
       inkscape:export-xdpi="96"
       inkscape:export-ydpi="96" />
    <path
       style="opacity:0.99;fill:#ffffff;stroke-width:0.911655;stroke-miterlimit:4;stroke-dasharray:none"
       d="m 1034.0224,1374.1498 v -16.1921 l 81.296,-1.7494 c 55.076,-1.1851 92.9073,-3.3687 117.2973,-6.7704 34.158,-4.7641 58.1309,-11.4481 58.1309,-16.2079 0,-3.1966 -29.9453,-13.1196 -49.6334,-16.4472 -31.1396,-5.2631 -114.6912,-10.9231 -161.246,-10.9231 h -45.8448 v -13.9104 -13.9105 l 61.2849,1.8135 c 117.0445,3.4631 175.3379,12.5268 213.2476,33.1563 16.9953,9.2484 24.4609,18.4267 20.1509,24.7741 -10.6326,15.6583 -61.0775,32.1083 -125.2455,40.8425 -13.1785,1.7937 -30.5157,4.3849 -38.5271,5.758 -8.0115,1.3732 -40.7438,3.2757 -72.7385,4.2277 l -58.1723,1.7311 z"
       id="path526"
       inkscape:export-xdpi="96"
       inkscape:export-ydpi="96" />
    <path
       style="opacity:0.99;fill:#ffffff;stroke-width:0.911655;stroke-miterlimit:4;stroke-dasharray:none"
       d="m 1536.6263,1248.3154 c 1.3511,-36.3596 -2.7807,-56.3695 -16.3634,-79.2462 -35.614,-59.9825 -115.642,-68.9036 -168.5687,-18.791 -20.8443,19.736 -30.5003,34.7094 -44.0502,68.3079 -5.894,14.6147 -13.2624,31.7901 -16.3742,38.1674 l -5.6577,11.5953 -17.115,-1.6936 c -9.4132,-0.9313 -22.5061,-2.6834 -29.0954,-3.8932 -6.5892,-1.2099 -23.9181,-3.7827 -38.5086,-5.7174 -30.5898,-4.0561 -28.4315,-0.01 -23.0654,-43.3 7.8795,-63.5752 35.3831,-142.8902 77.045,-222.18284 52.1726,-99.29715 129.6462,-166.24039 215.7269,-186.40488 28.5312,-6.68346 75.9115,-6.58491 102.5435,0.21327 103.4037,26.39522 170.2418,103.68256 183.7662,212.49555 13.6886,110.1347 -39.1323,210.9556 -128.9984,246.2231 -25.2918,9.9257 -50.4853,14.7902 -76.6287,14.7961 h -15.792 l 1.1361,-30.5731 z m 7.4214,-266.19607 c 0,-1.48381 -0.6793,-2.69783 -1.5095,-2.69783 -0.8302,0 -2.4615,1.21402 -3.625,2.69783 -1.1635,1.48382 -0.4843,2.69783 1.5095,2.69783 1.9937,0 3.625,-1.21401 3.625,-2.69783 z"
       id="path532"
       inkscape:export-xdpi="96"
       inkscape:export-ydpi="96" />
    <path
       style="opacity:0.99;fill:#ffffff;stroke-width:0.911655;stroke-miterlimit:4;stroke-dasharray:none"
       d="m 1307.3186,1621.7346 c -17.1672,-4.3903 -41.0641,-19.6662 -56.6991,-36.2448 -36.6725,-38.8852 -72.8316,-118.9033 -72.8316,-161.1719 0,-11.9019 -4.9111,-10.2015 54.0014,-18.6984 21.2289,-3.0617 39.9796,-4.8939 41.6683,-4.0713 1.6886,0.8225 4.1368,5.4272 5.4404,10.2325 1.3036,4.8055 3.5547,9.9512 5.0026,11.4349 1.4478,1.4838 3.7763,6.9071 5.1744,12.0518 1.3981,5.1446 3.7068,11.2147 5.1304,13.4891 1.4236,2.2745 4.6437,7.7775 7.1558,12.2289 8.9354,15.8334 25.4772,31.6577 40.2035,38.4595 19.6957,9.0973 55.1124,11.1748 85.5905,5.0208 11.881,-2.3989 22.2475,-4.3617 23.0368,-4.3617 3.1004,0 1.17,14.8709 -3.9768,30.6357 -12.539,38.4065 -42.2601,71.5075 -76.6063,85.3176 -16.358,6.5773 -47.6268,9.4272 -62.2903,5.6773 z"
       id="path534"
       inkscape:export-xdpi="96"
       inkscape:export-ydpi="96" />
    <path
       style="opacity:0.99;fill:#ffffff;stroke-width:0.911655;stroke-miterlimit:4;stroke-dasharray:none"
       d="m 1034.0224,1732.7746 c 0,-45.6369 1.4416,-86.9381 3.2036,-91.7801 5.5844,-15.3468 10.2464,-77.8346 11.2392,-150.6473 l 0.9607,-70.4581 40.7791,-1.3413 c 22.4285,-0.7376 43.5336,-0.7736 46.9002,-0.08 6.4224,1.3237 8.5963,7.5272 18.2081,51.9596 9.316,43.0654 20.3072,70.631 44.6415,111.9602 21.6621,36.7904 23.3477,40.9651 21.5321,53.327 -4.7297,32.2044 -70.3042,105.0659 -135.0667,150.076 -23.5343,16.3564 -46.4663,29.9599 -50.5047,29.9599 -1.0412,0 -1.8931,-37.3393 -1.8931,-82.9763 z"
       id="path536"
       inkscape:export-xdpi="96"
       inkscape:export-ydpi="96" />
    <path
       style="opacity:0.99;fill:#ffffff;stroke-width:0.911655;stroke-miterlimit:4;stroke-dasharray:none"
       d="m 1183.7782,1382.3103 c 2.3533,-0.7485 6.2041,-0.7485 8.5574,0 2.3533,0.7484 0.4279,1.3607 -4.2787,1.3607 -4.7066,0 -6.6321,-0.6123 -4.2787,-1.3607 z"
       id="path538"
       inkscape:export-xdpi="96"
       inkscape:export-ydpi="96" />
    <path
       style="opacity:0.99;fill:#ffffff;stroke-width:0.911655;stroke-miterlimit:4;stroke-dasharray:none"
       d="m 1031.986,1379.9771 v -16.1921 l 81.296,-1.7494 c 55.0759,-1.1851 92.9073,-3.3687 117.2973,-6.7704 34.1579,-4.7641 58.1308,-11.4481 58.1308,-16.2079 0,-3.1966 -29.9453,-13.1196 -49.6333,-16.4472 -31.1396,-5.2631 -114.6912,-10.9231 -161.2461,-10.9231 h -45.8447 v -13.9104 -13.9105 l 61.2849,1.8135 c 117.0445,3.4631 175.3379,12.5268 213.2475,33.1563 16.9954,9.2484 24.461,18.4267 20.1509,24.7741 -10.6325,15.6583 -61.0774,32.1083 -125.2454,40.8425 -13.1785,1.7937 -30.5157,4.3849 -38.5272,5.758 -8.0114,1.3732 -40.7437,3.2757 -72.7385,4.2277 l -58.1722,1.7311 z"
       id="path540"
       inkscape:export-xdpi="96"
       inkscape:export-ydpi="96" />
    <ellipse
       style="opacity:0.99;fill:none;stroke-width:0.30681;stroke-miterlimit:4;stroke-dasharray:none"
       id="path552"
       cx="1811.6567"
       cy="611.75641"
       rx="86.761459"
       ry="123.77142"
       inkscape:export-xdpi="96"
       inkscape:export-ydpi="96" />
    <circle
       style="opacity:1;fill:none;stroke:#ffffff;stroke-width:68.7637;stroke-miterlimit:4;stroke-dasharray:none;stroke-opacity:1"
       id="path556"
       cx="1014.1266"
       cy="1005.7542"
       r="915.61816"
       inkscape:export-xdpi="96"
       inkscape:export-ydpi="96" />
  </g>
</svg>
